<svg width="803" height="783" viewBox="0 0 803 783" fill="none" xmlns="http://www.w3.org/2000/svg">
<path d="M793 0V60V60C793 95.8985 763.899 125 728 125H105.5C53.033 125 10.5 167.533 10.5 220V220C10.5 272.467 53.0329 315 105.5 315H249.75C294.899 315 331.5 351.601 331.5 396.75V396.75C331.5 441.899 294.899 478.5 249.75 478.5H100.75C50.9063 478.5 10.5 518.906 10.5 568.75V568.75C10.5 618.594 50.9063 659 100.75 659H446.5C514.983 659 570.5 714.517 570.5 783V783" stroke="#1BA4D2" stroke-width="20"/>
</svg>
