<svg width="102" height="92" viewBox="0 0 102 92" fill="none" xmlns="http://www.w3.org/2000/svg">
<path d="M51.0532 46.2615C44.51 46.2556 38.2891 49.1008 34.0141 54.0536C29.7393 59.0072 27.835 65.5781 28.7975 72.0493C29.761 78.5213 33.4968 84.2526 39.0288 87.7457C39.0472 87.7541 39.0615 87.7691 39.0807 87.7775C42.6591 90.0534 46.8126 91.2614 51.0531 91.2614C55.2936 91.2614 59.4471 90.0535 63.0254 87.7775C63.0438 87.77 63.0581 87.7549 63.0773 87.7457C68.6093 84.2526 72.3452 78.5213 73.3086 72.0493C74.2712 65.5781 72.3669 59.0072 68.092 54.0536C63.8172 49.1008 57.5963 46.2555 51.0529 46.2615H51.0532ZM41.6782 84.9743V84.6989C41.6807 82.2137 42.6701 79.8306 44.4271 78.0737C46.1849 76.3159 48.568 75.3274 51.0532 75.3239C53.5385 75.3281 55.9207 76.3175 57.6777 78.0745C59.4346 79.8323 60.424 82.2137 60.4282 84.6989V84.9752C57.5832 86.6359 54.3479 87.5115 51.0532 87.5115C47.7586 87.5115 44.5233 86.6359 41.6782 84.9752V84.9743ZM45.4282 65.949C45.4282 64.4574 46.0209 63.0268 47.0756 61.9721C48.1303 60.9165 49.5617 60.3239 51.0531 60.3239C52.5446 60.3239 53.9762 60.9165 55.0307 61.9721C56.0854 63.0268 56.678 64.4573 56.678 65.949C56.678 67.4414 56.0854 68.8721 55.0307 69.9266C53.976 70.9811 52.5446 71.5739 51.0531 71.5739C49.5615 71.5722 48.1318 70.9796 47.0771 69.9249C46.0232 68.8702 45.4297 67.4405 45.4281 65.9488L45.4282 65.949ZM63.9582 82.3292C63.2199 78.3473 60.6929 74.9263 57.1045 73.0496C59.0732 71.3855 60.271 68.9839 60.4141 66.4101C60.5572 63.8361 59.6348 61.3166 57.862 59.4441C56.0899 57.5716 53.6249 56.5118 51.0466 56.5136C48.4685 56.5152 46.0051 57.5791 44.2355 59.4542C42.466 61.3292 41.5469 63.8496 41.6943 66.4234C41.8408 68.9974 43.042 71.3972 45.0132 73.0588C41.4205 74.9288 38.8893 78.3506 38.1535 82.3341C34.5031 78.8738 32.3962 74.0908 32.3067 69.0617C32.2171 64.0326 34.1515 59.1778 37.6765 55.5893C41.2012 52.0001 46.0203 49.9785 51.05 49.9776C56.0808 49.9768 60.8997 51.9966 64.4262 55.5842C67.9518 59.1718 69.8887 64.026 69.8009 69.0548C69.713 74.0848 67.6079 78.8676 63.9582 82.3296V82.3292Z" fill="black"/>
<path d="M39.9053 25.508L37.9156 37.1053C37.7942 37.8084 38.0839 38.5199 38.6614 38.9393C39.239 39.3587 40.0049 39.4139 40.636 39.0816L51.0514 33.6072L61.4667 39.0825V39.0816C62.0979 39.4139 62.8638 39.3587 63.4413 38.9393C64.0189 38.52 64.3085 37.8085 64.1872 37.1053L62.1975 25.508L70.624 17.2957C71.1355 16.7976 71.3205 16.0518 71.0995 15.373C70.8794 14.6941 70.2918 14.1994 69.5853 14.0965L57.9418 12.4048L52.7328 1.85293C52.3812 1.25779 51.7417 0.892822 51.0511 0.892822C50.3605 0.892822 49.7211 1.25777 49.3695 1.85293L44.1621 12.4039L32.5187 14.0956L32.5179 14.0964C31.8114 14.1986 31.2246 14.6933 31.0036 15.3721C30.7835 16.0518 30.9676 16.7968 31.4791 17.2948L39.9053 25.508ZM45.6777 15.974C46.2879 15.8852 46.8161 15.501 47.0881 14.9477L51.0516 6.91865L55.015 14.9469C55.287 15.5001 55.8152 15.8844 56.4254 15.9731L65.2857 17.2605L58.873 23.5099H58.8738C58.4327 23.941 58.231 24.5612 58.3348 25.1698L59.849 33.9932L51.9239 29.8273V29.8281C51.3773 29.541 50.7252 29.541 50.1795 29.8281L42.2543 33.9941L43.7685 25.1706V25.1698C43.8723 24.5613 43.6706 23.941 43.2295 23.5099L36.8168 17.2605L45.6777 15.974Z" fill="black"/>
<path d="M25.0476 41.2151L31.2518 35.1682H31.2526C31.7641 34.6702 31.9482 33.9243 31.7272 33.2455C31.5071 32.5666 30.9195 32.0719 30.213 31.969L21.639 30.7226L17.8037 22.9539V22.9547C17.453 22.3596 16.8135 21.9946 16.1221 21.9946C15.4315 21.9946 14.792 22.3596 14.4413 22.9547L10.6075 30.7226L2.03348 31.9681V31.969C1.327 32.0711 0.740224 32.5658 0.519252 33.2446C0.299116 33.9243 0.483258 34.6693 0.994708 35.1674L7.19892 41.2151L5.73492 49.7531C5.61439 50.4563 5.90317 51.1678 6.48074 51.5871C7.05831 52.0065 7.82421 52.0617 8.4562 51.7294L16.1236 47.6983L23.7926 51.7294C24.4238 52.0617 25.1897 52.0065 25.7672 51.5871C26.3448 51.1678 26.6336 50.4563 26.5131 49.7531L25.0476 41.2151ZM21.7245 39.2179V39.2188C21.2833 39.649 21.0816 40.2693 21.1854 40.8778L22.174 46.6434L16.996 43.9205C16.4494 43.6334 15.7965 43.6334 15.2507 43.9205L10.0736 46.6425L11.0621 40.8778C11.1659 40.2693 10.9642 39.649 10.5231 39.2188L6.33357 35.1341L12.1236 34.2928H12.1227C12.7346 34.2032 13.2628 33.8199 13.5357 33.2657L16.123 28.02L18.7128 33.2657C18.9857 33.819 19.5131 34.2032 20.1241 34.292L25.9141 35.1332L21.7245 39.2179Z" fill="black"/>
<path d="M101.586 33.2458C101.365 32.5678 100.778 32.0731 100.073 31.9701L91.4987 30.7246L87.6658 22.9559H87.665C87.3494 22.3155 86.6973 21.9104 85.9842 21.9104C85.2702 21.9104 84.6181 22.3155 84.3025 22.9559L80.4672 30.7237L71.8932 31.9693V31.9701C71.1867 32.0722 70.5991 32.5669 70.379 33.2458C70.158 33.9255 70.343 34.6704 70.8544 35.1685L77.0587 41.2163L75.5938 49.7543C75.4733 50.4583 75.7629 51.1689 76.3396 51.5883C76.9172 52.0076 77.6831 52.0629 78.3151 51.7306L85.9842 47.6994L93.6515 51.7306H93.6507C94.2827 52.0629 95.0477 52.0068 95.6253 51.5874C96.202 51.1681 96.4916 50.4574 96.3711 49.7543L94.9071 41.2163L101.111 35.1694C101.623 34.6705 101.806 33.9255 101.586 33.2458ZM91.5841 39.219H91.5833C91.1422 39.6501 90.9404 40.2703 91.0442 40.8781L92.0328 46.6428L86.8557 43.9207V43.9215C86.3099 43.6336 85.657 43.6336 85.1112 43.9215L79.9332 46.6445L80.921 40.8789C81.0248 40.2712 80.823 39.6509 80.3819 39.2198L76.1924 35.1358L81.9824 34.2945C82.5926 34.2058 83.1208 33.8216 83.3928 33.2683L85.9836 28.0209L88.5708 33.2666C88.8445 33.8199 89.3719 34.2032 89.9829 34.2928L95.7729 35.1341L91.5841 39.219Z" fill="black"/>
</svg>
