<svg width="24" height="24" viewBox="0 0 24 24" fill="none" xmlns="http://www.w3.org/2000/svg">
<path d="M17 10.95C16.7167 10.95 16.4793 10.854 16.288 10.662C16.096 10.4706 16 10.2333 16 9.94995V7.94995H14C13.7167 7.94995 13.4793 7.85395 13.288 7.66195C13.096 7.47062 13 7.23328 13 6.94995C13 6.66662 13.096 6.42895 13.288 6.23695C13.4793 6.04562 13.7167 5.94995 14 5.94995H16V3.94995C16 3.66662 16.096 3.42895 16.288 3.23695C16.4793 3.04562 16.7167 2.94995 17 2.94995C17.2833 2.94995 17.5207 3.04562 17.712 3.23695C17.904 3.42895 18 3.66662 18 3.94995V5.94995H20C20.2833 5.94995 20.5207 6.04562 20.712 6.23695C20.904 6.42895 21 6.66662 21 6.94995C21 7.23328 20.904 7.47062 20.712 7.66195C20.5207 7.85395 20.2833 7.94995 20 7.94995H18V9.94995C18 10.2333 17.904 10.4706 17.712 10.662C17.5207 10.854 17.2833 10.95 17 10.95ZM19.95 21C17.8 21 15.7043 20.5206 13.663 19.562C11.621 18.604 9.81267 17.3373 8.238 15.762C6.66267 14.1873 5.396 12.379 4.438 10.337C3.47933 8.29562 3 6.19995 3 4.04995C3 3.74995 3.1 3.49995 3.3 3.29995C3.5 3.09995 3.75 2.99995 4.05 2.99995H8.1C8.33333 2.99995 8.54167 3.07495 8.725 3.22495C8.90833 3.37495 9.01667 3.56662 9.05 3.79995L9.7 7.29995C9.73333 7.53328 9.72933 7.74562 9.688 7.93695C9.646 8.12895 9.55 8.29995 9.4 8.44995L7 10.9C7.7 12.1 8.575 13.225 9.625 14.275C10.675 15.325 11.8333 16.2333 13.1 17L15.45 14.65C15.6 14.5 15.796 14.3873 16.038 14.312C16.2793 14.2373 16.5167 14.2166 16.75 14.25L20.2 14.95C20.4333 15 20.625 15.1123 20.775 15.287C20.925 15.4623 21 15.6666 21 15.9V19.95C21 20.25 20.9 20.5 20.7 20.7C20.5 20.9 20.25 21 19.95 21ZM6.05 8.99995L7.7 7.34995L7.25 4.99995H5.05C5.13333 5.68328 5.25 6.35828 5.4 7.02495C5.55 7.69162 5.76667 8.34995 6.05 8.99995ZM19 18.95V16.75L16.65 16.25L15 17.9C15.65 18.1833 16.3083 18.4166 16.975 18.6C17.6417 18.7833 18.3167 18.9 19 18.95Z" fill="white"/>
</svg>
