<svg width="80" height="74" viewBox="0 0 80 74" fill="none" xmlns="http://www.w3.org/2000/svg">
<path d="M9.73718 66.6544H19.3152C19.9074 66.6544 20.3877 66.1742 20.3877 65.582V51.1085C20.3877 50.5157 19.9074 50.0355 19.3152 50.0355H9.73718C9.45249 50.0355 9.17949 50.148 8.97838 50.3491C8.7767 50.5508 8.66361 50.8238 8.66361 51.1085V65.582C8.66361 65.8667 8.77671 66.1396 8.97838 66.3408C9.17951 66.5419 9.45249 66.655 9.73718 66.6544ZM10.8102 52.1824L18.2412 52.1829V64.5088H10.8102V52.1824ZM26.6742 38.242V38.2426C26.0809 38.2426 25.6007 38.7234 25.6007 39.3162V65.5818C25.6007 65.8665 25.7138 66.1395 25.9149 66.3406C26.1166 66.5417 26.3896 66.6548 26.6742 66.6542H36.2517C36.5364 66.6548 36.8094 66.5417 37.0105 66.3406C37.2122 66.1395 37.3253 65.8665 37.3253 65.5818V39.3162C37.3253 39.0315 37.2128 38.7585 37.0111 38.5574C36.8099 38.3557 36.537 38.2426 36.2523 38.2426L26.6742 38.242ZM35.1782 64.5091H27.7468V40.39H35.1782V64.5091ZM43.6114 29.5705C43.3267 29.57 43.0537 29.6831 42.8526 29.8842C42.6509 30.0853 42.5378 30.3583 42.5378 30.643V65.583C42.5378 66.1752 43.0181 66.6554 43.6108 66.6554H53.1889C53.7817 66.6554 54.2619 66.1752 54.2619 65.583V30.643C54.2619 30.0508 53.7817 29.5705 53.1889 29.5705H43.6114ZM52.1153 64.5091H44.6849V31.7156H52.1153V64.5091ZM70.1259 18.8566H60.5484C59.9579 18.8566 59.4782 19.3346 59.4759 19.9252V65.5776C59.4759 66.1699 59.9562 66.6501 60.5484 66.6501H70.1264C70.4111 66.6507 70.6841 66.5376 70.8852 66.3364C71.0869 66.1353 71.2 65.8623 71.2 65.5776V19.9252C71.1978 19.3341 70.7176 18.8555 70.1264 18.8561L70.1259 18.8566ZM69.0529 64.5091H61.6224V21.0031H69.0539L69.0529 64.5091ZM8.96545 33.4998C8.96545 32.9076 9.44569 32.4273 10.0385 32.4273H18.1937L26.4804 20.9389C26.6821 20.6592 27.0058 20.4932 27.3507 20.4932H45.1858L65.8263 3.52377L62.3069 4.33941V4.33885C62.0295 4.40348 61.7381 4.35501 61.4968 4.20403C61.255 4.0536 61.0835 3.81293 61.0194 3.53604C60.8857 2.9583 61.245 2.38224 61.8227 2.24797L69.8018 0.398285V0.398842C70.203 0.306359 70.6214 0.451212 70.8799 0.771561C71.1378 1.09246 71.1896 1.53259 71.0136 1.90419L67.6937 8.90331H67.6932C67.5154 9.2777 67.1377 9.51671 66.7232 9.51616C66.5644 9.51671 66.4073 9.48106 66.2641 9.41309C65.7293 9.15847 65.5009 8.51946 65.7538 7.98357L67.0152 5.32335L46.2491 22.3968C46.0569 22.5551 45.8162 22.6414 45.5672 22.6409H27.899L19.6162 34.1288C19.4145 34.4085 19.0909 34.5739 18.746 34.5745H10.0381C9.75341 34.5745 9.48042 34.4608 9.2793 34.2597C9.07762 34.0586 8.96509 33.785 8.96509 33.5004L8.96545 33.4998ZM79.0265 72.7085C79.0265 72.9932 78.914 73.2662 78.7129 73.4679C78.5112 73.669 78.2382 73.7821 77.9535 73.7821H1.91221C1.33113 73.7659 0.868164 73.2902 0.868164 72.7091C0.868164 72.128 1.33113 71.6522 1.91221 71.6361H77.9535C78.5463 71.6361 79.0265 72.1163 79.0265 72.7085Z" fill="black"/>
</svg>
