<svg width="30" height="29" viewBox="0 0 30 29" fill="none" xmlns="http://www.w3.org/2000/svg">
<path d="M10.2737 14.3336C10.2737 11.7024 12.4074 9.5688 15.0402 9.5688C17.673 9.5688 19.8079 11.7024 19.8079 14.3336C19.8079 16.9649 17.673 19.0985 15.0402 19.0985C12.4074 19.0985 10.2737 16.9649 10.2737 14.3336ZM7.69634 14.3336C7.69634 18.3872 10.9842 21.6731 15.0402 21.6731C19.0962 21.6731 22.3841 18.3872 22.3841 14.3336C22.3841 10.28 19.0962 6.99417 15.0402 6.99417C10.9842 6.99417 7.69634 10.28 7.69634 14.3336ZM20.9586 6.70316C20.9584 7.04239 21.059 7.37405 21.2474 7.65619C21.4359 7.93833 21.7038 8.15827 22.0174 8.28822C22.3309 8.41816 22.676 8.45227 23.0089 8.38622C23.3419 8.32017 23.6478 8.15694 23.8879 7.91716C24.128 7.67738 24.2916 7.37182 24.3579 7.03913C24.4243 6.70644 24.3904 6.36156 24.2607 6.0481C24.1309 5.73463 23.911 5.46667 23.6289 5.27809C23.3467 5.0895 23.0149 4.98878 22.6755 4.98864H22.6748C22.2198 4.98885 21.7835 5.16953 21.4617 5.491C21.1399 5.81247 20.959 6.24844 20.9586 6.70316ZM9.26223 25.9681C7.86785 25.9046 7.10996 25.6725 6.6063 25.4764C5.93858 25.2166 5.46215 24.9072 4.96124 24.4072C4.46033 23.9073 4.15026 23.4316 3.89146 22.7643C3.69512 22.2612 3.46286 21.5035 3.39947 20.11C3.33013 18.6033 3.31629 18.1508 3.31629 14.3337C3.31629 10.5167 3.33128 10.0654 3.39947 8.55752C3.46297 7.16397 3.69695 6.4078 3.89146 5.90319C4.15141 5.23586 4.46101 4.75972 4.96124 4.25911C5.46146 3.7585 5.93743 3.44862 6.6063 3.18997C7.10973 2.99375 7.86785 2.76162 9.26223 2.69827C10.7698 2.62898 11.2226 2.61514 15.0402 2.61514C18.8578 2.61514 19.3111 2.63012 20.8199 2.69827C22.2143 2.76174 22.9709 2.99558 23.4758 3.18997C24.1436 3.44862 24.62 3.75918 25.1209 4.25911C25.6218 4.75903 25.9307 5.23586 26.1907 5.90319C26.387 6.40631 26.6193 7.16397 26.6827 8.55752C26.752 10.0654 26.7658 10.5167 26.7658 14.3337C26.7658 18.1508 26.752 18.6021 26.6827 20.11C26.6192 21.5035 26.3858 22.261 26.1907 22.7643C25.9307 23.4316 25.6211 23.9078 25.1209 24.4072C24.6207 24.9067 24.1436 25.2166 23.4758 25.4764C22.9724 25.6726 22.2143 25.9047 20.8199 25.9681C19.3124 26.0374 18.8595 26.0512 15.0402 26.0512C11.2209 26.0512 10.7693 26.0374 9.26223 25.9681ZM9.14381 0.126844C7.62128 0.196138 6.5809 0.43741 5.67233 0.790741C4.73138 1.15562 3.93482 1.64514 3.13883 2.43939C2.34284 3.23365 1.85429 4.03099 1.48919 4.97137C1.13565 5.87997 0.894229 6.91916 0.824894 8.44077C0.754414 9.96478 0.738281 10.452 0.738281 14.3336C0.738281 18.2152 0.754414 18.7025 0.824894 20.2265C0.894229 21.7482 1.13565 22.7873 1.48919 23.6959C1.85429 24.6357 2.34296 25.434 3.13883 26.2279C3.9347 27.0218 4.73138 27.5106 5.67233 27.8765C6.58262 28.2299 7.62128 28.4711 9.14381 28.5404C10.6695 28.6097 11.1563 28.627 15.0402 28.627C18.9242 28.627 19.4117 28.6109 20.9366 28.5404C22.4592 28.4711 23.4989 28.2299 24.4081 27.8765C25.3485 27.5106 26.1456 27.0221 26.9416 26.2279C27.7376 25.4336 28.2251 24.6357 28.5912 23.6959C28.9448 22.7873 29.1873 21.7481 29.2555 20.2265C29.3249 18.7013 29.341 18.2152 29.341 14.3336C29.341 10.452 29.3249 9.96478 29.2555 8.44077C29.1862 6.91904 28.9448 5.8794 28.5912 4.97137C28.2251 4.03156 27.7363 3.2349 26.9416 2.43939C26.1469 1.64388 25.3485 1.15562 24.4092 0.790741C23.4989 0.43741 22.4591 0.194994 20.9377 0.126844C19.4128 0.0575496 18.9253 0.0402832 15.0414 0.0402832C11.1574 0.0402832 10.6695 0.0564061 9.14381 0.126844Z" fill="white"/>
</svg>
