<svg width="30" height="29" viewBox="0 0 30 29" fill="none" xmlns="http://www.w3.org/2000/svg">
<path fill-rule="evenodd" clip-rule="evenodd" d="M2.55053 0.0402832C1.38336 0.0402832 0.436523 0.958288 0.436523 2.08926V26.5958C0.436523 27.7269 1.38347 28.6441 2.55053 28.6441H26.9264C28.094 28.6441 29.0404 27.7268 29.0404 26.5955V2.08926C29.0404 0.958288 28.094 0.0402832 26.9264 0.0402832H2.55053ZM9.12873 11.1005V23.978H4.84843V11.1005H9.12873ZM9.41085 7.11794C9.41085 8.35371 8.48179 9.34256 6.98947 9.34256L6.96143 9.34244C5.52486 9.34244 4.59613 8.3536 4.59613 7.11782C4.59613 5.854 5.55291 4.89276 7.01785 4.89276C8.48179 4.89276 9.38292 5.854 9.41085 7.11794ZM15.7779 23.978H11.4979C11.4979 23.978 11.554 12.309 11.4982 11.1009H15.7782V12.9237C16.3472 12.0464 17.3655 10.7986 19.6358 10.7986C22.4519 10.7986 24.5632 12.6391 24.5632 16.5944V23.978H20.2833V17.0896C20.2833 15.3583 19.6635 14.1775 18.1151 14.1775C16.9324 14.1775 16.2282 14.9738 15.9189 15.7431C15.8058 16.0176 15.7779 16.403 15.7779 16.7874V23.978Z" fill="white"/>
</svg>
