<svg width="66" height="106" viewBox="0 0 66 106" fill="none" xmlns="http://www.w3.org/2000/svg">
<path d="M32.8299 0.189279C31.6078 0.303956 30.6686 1.32349 30.6554 2.55135L30.3925 12.0393C30.2921 12.7198 30.4879 13.4112 30.9307 13.9377C31.3744 14.4634 32.0223 14.7748 32.7103 14.7907C33.3984 14.8066 34.0605 14.527 34.5276 14.0223C34.9955 13.5175 35.224 12.8362 35.1554 12.1515L35.455 2.66439C35.4801 1.97381 35.2056 1.30586 34.7033 0.832073C34.2003 0.358308 33.518 0.123986 32.8299 0.189279ZM2.79135 14.0266C1.85051 14.1044 1.04274 14.7263 0.728017 15.6161C0.412439 16.5059 0.647661 17.4987 1.32903 18.1516L5.60381 22.5018C6.5363 23.4543 8.06381 23.4711 9.01653 22.5394C9.96909 21.607 9.98583 20.0794 9.05419 19.1267L4.77941 14.7765C4.26964 14.2308 3.53465 13.9538 2.79135 14.0266ZM62.9799 14.0266C62.353 14.0517 61.7612 14.3204 61.3301 14.7766L57.0553 19.1268C56.1237 20.0793 56.1404 21.6069 57.093 22.5395C58.0455 23.4711 59.5731 23.4544 60.5057 22.5018L64.7805 18.1516C65.5029 17.4552 65.7163 16.3829 65.3145 15.463C64.9136 14.543 63.982 13.9705 62.9799 14.0266ZM33.0549 18.8639C17.0999 18.8639 4.17993 31.5888 4.17993 47.2524C4.17993 53.9204 7.07107 59.4785 10.0301 64.3149C14.6759 71.9094 15.2819 77.0531 15.2801 80.4776C15.2793 82.1894 15.0633 83.3947 15.1303 84.7524C15.1638 85.4313 15.2801 86.3512 16.0301 87.2276C16.7801 88.1032 17.9612 88.3895 18.8049 88.3895H47.3049C48.1487 88.3895 49.3298 88.1032 50.0797 87.2276C50.8297 86.3513 50.9461 85.4313 50.9795 84.7524C51.0465 83.3947 50.8305 82.1894 50.8297 80.4776C50.828 77.0534 51.4341 71.9096 56.0797 64.3149C59.0388 59.4785 61.9299 53.9204 61.9299 47.2524C61.9299 31.5894 49.01 18.8639 33.0549 18.8639ZM33.0549 23.6643C46.478 23.6643 57.1299 34.2187 57.1299 47.2507C57.1299 52.5149 54.8154 57.2225 51.992 61.838C46.9237 70.1231 46.0271 76.4103 46.0297 80.4759C46.0306 82.0379 46.1059 82.8734 46.1419 83.588H19.9669C20.0029 82.8732 20.0782 82.0378 20.079 80.4759C20.0816 76.4103 19.1851 70.1234 14.1168 61.838C11.2933 57.2225 8.97883 52.5149 8.97883 47.2507C8.97883 34.2179 19.6312 23.6643 33.0538 23.6643H33.0549ZM26.9051 45.7507C25.683 45.8855 24.7606 46.9209 24.7673 48.1505C24.7673 51.7976 27.2869 54.8694 30.6552 55.8757V77.8507C30.646 78.4927 30.8946 79.1122 31.3458 79.5692C31.797 80.027 32.4122 80.2848 33.0551 80.2848C33.6979 80.2848 34.3132 80.027 34.7643 79.5692C35.2155 79.1122 35.4641 78.4927 35.4549 77.8507V55.8757C38.8233 54.8696 41.3429 51.7976 41.3429 48.1505C41.3521 47.5085 41.1026 46.8891 40.6523 46.4312C40.2011 45.9742 39.585 45.7164 38.943 45.7164C38.3001 45.7164 37.6849 45.9742 37.2337 46.4312C36.7826 46.8891 36.534 47.5085 36.5423 48.1505C36.5423 49.9284 35.0549 51.4134 33.0552 51.4134C31.0556 51.4134 29.5682 49.9285 29.5682 48.1505C29.5715 47.4658 29.2836 46.8121 28.7747 46.3534C28.2657 45.8955 27.586 45.6753 26.9055 45.7507L26.9051 45.7507ZM21.6551 92.2893C21.0123 92.2801 20.3937 92.5287 19.9358 92.9799C19.478 93.431 19.221 94.0463 19.221 94.6891C19.221 95.3312 19.478 95.9472 19.9358 96.3984C20.3937 96.8496 21.0123 97.0982 21.6551 97.089H44.4551C45.098 97.0982 45.7166 96.8496 46.1744 96.3984C46.6323 95.9472 46.8893 95.3312 46.8893 94.6891C46.8893 94.0463 46.6323 93.431 46.1744 92.9799C45.7166 92.5287 45.098 92.2801 44.4551 92.2893H21.6551ZM28.9299 101.026C28.2929 101.056 27.6944 101.338 27.2659 101.809C26.8365 102.28 26.6121 102.902 26.6423 103.539C26.6716 104.175 26.9536 104.774 27.4249 105.203C27.8961 105.632 28.5181 105.856 29.1551 105.826H36.9546C37.5975 105.835 38.2161 105.587 38.6739 105.135C39.1318 104.684 39.3888 104.069 39.3888 103.426C39.3888 102.784 39.1318 102.168 38.6739 101.717C38.2161 101.266 37.5975 101.017 36.9546 101.026H29.1551C29.0797 101.023 29.0053 101.023 28.9299 101.026Z" fill="black"/>
</svg>
