<svg width="25" height="21" viewBox="0 0 25 21" fill="none" xmlns="http://www.w3.org/2000/svg">
<path d="M24.5381 2.65103C23.7467 2.99163 22.9146 3.22881 22.0626 3.35669C22.4609 3.2884 23.0471 2.57136 23.2804 2.28113C23.6349 1.84334 23.905 1.34357 24.0771 0.807201C24.0771 0.767365 24.117 0.710457 24.0771 0.682003C24.0571 0.671045 24.0346 0.665302 24.0117 0.665302C23.9888 0.665302 23.9663 0.671045 23.9462 0.682003C23.021 1.18304 22.0363 1.56544 21.0155 1.82017C20.9799 1.83104 20.942 1.83201 20.9059 1.82299C20.8698 1.81397 20.8369 1.79529 20.8106 1.76895C20.7311 1.67433 20.6456 1.58498 20.5545 1.50148C20.1381 1.12842 19.6657 0.823083 19.1546 0.59664C18.4646 0.313565 17.7193 0.190972 16.975 0.238118C16.2528 0.283729 15.5477 0.477439 14.9035 0.807201C14.2692 1.15487 13.7117 1.62718 13.2646 2.19576C12.7942 2.78098 12.4546 3.46014 12.2687 4.18755C12.1153 4.87948 12.0979 5.5946 12.2174 6.29316C12.2174 6.41267 12.2174 6.42974 12.115 6.41267C8.05744 5.81513 4.72831 4.37535 2.00809 1.28523C1.88858 1.14865 1.82598 1.14865 1.72924 1.28523C0.545545 3.08353 1.12032 5.92895 2.59994 7.33458C2.79911 7.52238 3.00398 7.70449 3.22024 7.87521C2.54184 7.82705 1.88001 7.64321 1.27397 7.33458C1.16015 7.2606 1.09756 7.30044 1.09187 7.43702C1.07573 7.62637 1.07573 7.81675 1.09187 8.0061C1.21061 8.91356 1.56823 9.7732 2.12817 10.4971C2.6881 11.221 3.43025 11.7832 4.27873 12.1263C4.48557 12.2149 4.70109 12.2816 4.92179 12.3254C4.29377 12.4491 3.64965 12.4683 3.01537 12.3824C2.87879 12.3539 2.82757 12.4279 2.87879 12.5588C3.71534 14.8351 5.53071 15.5294 6.86237 15.9164C7.04447 15.9448 7.22658 15.9448 7.43145 15.9903C7.43145 15.9903 7.43145 15.9903 7.39731 16.0245C7.00464 16.7415 5.4169 17.2253 4.68847 17.4756C3.35891 17.9532 1.94134 18.1358 0.534164 18.0106C0.312221 17.9764 0.261004 17.9821 0.204095 18.0106C0.147187 18.039 0.204095 18.1016 0.266695 18.1585C0.551236 18.3463 0.835778 18.5114 1.1317 18.6707C2.01267 19.1512 2.94403 19.5329 3.90883 19.8089C8.90538 21.1861 14.5279 20.1731 18.2782 16.4456C21.226 13.5205 22.2618 9.48572 22.2618 5.44523C22.2618 5.29158 22.4496 5.20052 22.5577 5.12085C23.3035 4.53976 23.961 3.8535 24.5096 3.08353C24.6047 2.96876 24.6534 2.82263 24.6462 2.67379C24.6462 2.58843 24.6462 2.6055 24.5381 2.65103Z" fill="white"/>
</svg>
