<svg width="31" height="22" viewBox="0 0 31 22" fill="none" xmlns="http://www.w3.org/2000/svg">
<path fill-rule="evenodd" clip-rule="evenodd" d="M27.571 1.32826C28.8574 1.67567 29.8685 2.68934 30.2103 3.97427C30.8321 6.30618 30.8321 11.1746 30.8321 11.1746C30.8321 11.1746 30.8321 16.0431 30.2103 18.375C29.8637 19.6647 28.8526 20.6784 27.571 21.021C25.245 21.6444 15.9126 21.6444 15.9126 21.6444C15.9126 21.6444 6.585 21.6444 4.25428 21.021C2.96787 20.6736 1.95678 19.6599 1.61501 18.375C0.993164 16.0431 0.993164 11.1746 0.993164 11.1746C0.993164 11.1746 0.993164 6.30618 1.61501 3.97427C1.96153 2.68458 2.97262 1.67091 4.25428 1.32826C6.585 0.704834 15.9126 0.704834 15.9126 0.704834C15.9126 0.704834 25.245 0.704834 27.571 1.32826ZM20.6833 11.1746L12.9316 15.6624V6.6869L20.6833 11.1746Z" fill="white"/>
</svg>
